**ABCDEFGHIJKLMNOPQRSTUVWXYZabcdefghijklmnopqrstuvwxyz**************************
**PARASOLID !"#$%&'()*+,-./:;<=>?@[\]^_`{|}~0123456789**************************
**PART1;
MC=SUSE Linux-64;
MC_MODEL=genuineintel family 6 model 12 stepping 3, intel(r) core(tm) i7-4790k cpu @ 4.00ghz;
MC_ID=dominion;
OS=linux;
OS_RELEASE=3.16.0-4-amd64 #1 smp debian 3.16.43-2+deb8u3 (2017-08-15);
FRU=mdc_ugii_v7.0_djl_can_vrh;
APPL=unigraphics;
SITE=unknown;
USER=kamrak;
FORMAT=text;
GUISE=transmit;
KEY=sedov;
FILE=/users/kamrak/Desktop/MFEM_model/Sedov/sedov.x_t;
DATE=5-jun-2018;
**PART2;
SCH=SCH_2600169_25001;
USFLD_SIZE=0;
**PART3;
**END_OF_HEADER*****************************************************************
T51 : TRANSMIT FILE created by modeller version 260016923 SCH_2600169_25001_1300
6189 0 12 29 CCCCCCCCCCCCCDI5 owner1040 0 CCCCCCCCCA16 index_map_offset0 0 1 dA9
 index_map82 0 A17 node_id_index_map82 0 A20 schema_embedding_map82 0 A5 child12
 0 A14 lowest_node_id0 0 1 dZ1 135 2 3 0 0 0 0 1e3 1e-8 0 0 0 1 0 1 1 4 5 6 7 8
 9 10 0 0 0 0 0 0 81 255 1 2 135 11 1 12 0 0 0 13 70 11 CI9 list_type0 0 1 uI10
 notransmit0 0 1 lCCCDCCDI12 finger_index0 0 1 dI12 finger_block1012 0 CZ3 0 4 T
1 0 0 4 20 1 14 14 13 255 4 91 0 1 0 15 0 0 16 0 50 255 5 90 0 15 17 0 0 +0 1 1
 1 0 0 0 0 -1 30 255 6 86 0 18 19 0 0 +0 1 1 0 0 -1 29 255 7 67 0 20 21 0 1 1 0
 19 8 CCCCCCCA5 owner12 0 Z8 1 0 1 16 0 22 V0 16 255 9 73 23 ?24 0 25 19 0 0 1 1
8 255 10 15 0 26 0 27 28 ?1 17 255 26 0 29 30 31 10 32 33 0 34 +18 27 10 0 31 10
 35 36 ?1 29 28 17 0 10 36 37 1 1 1 29 36 12 0 27 38 28 1 0 1 29 37 70 0 39 28 4
0 0 1 0 18 39 60 0 41 42 0 37 ?1 29 40 69 0 42 37 21 0 0 0 18 42 58 0 43 44 39 4
0 ?1 29 21 68 0 44 40 7 1 0 0 18 44 56 0 45 20 42 21 ?1 17 45 0 46 47 24 44 43 4
8 0 49 +18 20 54 0 50 51 44 7 ?1 17 50 0 52 34 49 20 53 54 0 55 +18 51 2 0 30 35
 20 56 ?1 17 30 0 29 57 26 51 58 59 0 60 +18 35 5 0 61 27 51 38 ?1 29 56 4 0 51
 0 38 0 1 1 29 38 7 0 35 56 36 0 0 1 17 61 0 46 24 47 35 31 62 0 57 -15 255 46 7
9 0 45 63 0 17 24 0 46 45 61 42 64 9 0 65 +17 47 0 46 61 45 27 49 25 0 32 -17 31
 0 29 26 57 27 61 62 0 47 +16 62 11 66 ?31 33 67 68 0 0 1 17 57 0 29 31 30 35 69
 67 0 64 +15 29 23 0 57 70 0 17 69 0 71 72 64 51 57 67 0 0 -16 67 6 73 ?57 62 74
 75 0 0 1 17 64 0 71 69 65 35 24 9 0 0 -15 71 81 0 65 15 0 17 65 0 71 64 72 42 7
6 77 0 0 +17 72 0 71 65 69 39 60 18 0 76 +17 76 0 78 79 43 39 65 77 0 0 -16 77 5
2 80 ?65 48 0 81 0 0 1 81 1 80 117 82 77 0 0 73 23 83 16 48 50 84 ?45 54 77 85 0
 0 1 30 81 66 0 77 86 85 0 +0 1 0 0 -1 0 30 86 22 0 59 87 81 0 +1 1 1 -1 0 0 30
 85 65 0 48 81 88 0 +0 0 0 1 0 0 30 88 64 0 54 85 89 0 +1 0 0 0 1 0 16 54 48 90
 ?50 74 48 88 0 0 1 30 89 63 0 74 88 91 0 +1 1 0 -1 0 0 16 74 46 92 ?41 67 54 89
 0 0 1 30 91 83 0 93 89 94 0 +1 1 1 0 0 -1 16 93 71 95 ?55 25 18 91 0 0 1 30 94
 84 0 25 91 19 0 +1 0 1 0 0 -1 16 25 72 96 ?49 9 93 94 0 0 1 30 19 85 0 9 94 6 0
 +0 0 1 0 0 -1 81 1 96 115 82 25 0 0 84 73 97 17 49 0 52 50 32 44 47 25 0 53 +15
 52 77 0 50 98 0 17 32 0 52 49 34 27 26 33 0 0 -17 53 0 78 43 79 44 50 54 0 0 -1
5 78 45 0 76 99 0 17 43 0 78 76 53 42 45 48 0 24 -17 79 0 78 53 76 20 41 74 0 0
 -17 41 0 100 60 55 39 79 74 0 72 +15 100 75 0 41 101 0 17 60 0 100 58 41 51 72
 18 0 69 -17 55 0 100 41 58 20 34 93 0 79 +17 58 0 100 55 60 10 30 59 0 0 -17 34
 0 52 32 50 10 55 93 0 58 -16 59 20 102 ?30 18 33 86 0 0 1 81 1 102 119 82 59 0
 0 23 103 104 16 18 74 103 ?72 93 59 6 0 0 1 16 33 16 105 ?26 59 62 87 0 0 1 81
 1 105 121 82 33 0 0 103 92 106 30 87 19 0 33 68 86 0 +1 0 1 0 1 0 30 68 14 0 62
 75 87 0 +0 0 1 1 0 0 30 75 9 0 67 0 68 0 +0 1 1 0 -1 0 80 255 1 82 107 108 9000
 1 1 1 1 1 1 1 1 0 FFFFTFTFFFFFFF3 81 1 103 120 82 18 0 0 102 105 109 81 1 92 12
2 82 74 0 0 105 110 111 84 255 32 106 a9646af57b8b94b927676557611c657181 1 110 1
23 82 99 0 112 92 113 114 84 32 111 e0515247a4debb0be01428108b3e6ff314 255 99 42
 112 ?0 70 78 4 115 -0 0 0 70 22 81 1 112 134 116 99 110 0 117 0 118 81 1 113 12
4 82 101 0 119 110 120 121 84 32 114 55ca5d16409a8368a7761c9431d3db2e14 101 76 1
19 ?70 98 100 4 122 -0 0 70 98 22 81 1 119 132 116 101 113 0 123 117 124 81 1 12
0 125 82 15 0 125 113 126 127 84 32 121 fd529ed2b376a21bb91a805f877a9fb014 15 82
 125 ?63 0 71 4 5 -0 0 63 0 22 81 1 125 129 116 15 120 0 0 128 129 81 1 126 126
 82 70 0 117 120 130 131 84 32 127 86cb84a553cbdf4d7e2a8b8b0e4fe36414 70 24 117
 ?99 101 29 4 132 +0 0 99 101 22 81 1 117 133 116 70 126 0 119 112 133 81 1 130
 127 82 63 0 128 126 134 135 84 32 131 991f8b20af0e993d7df6dd2d7526235714 63 80
 128 ?98 15 46 4 17 -0 0 98 15 22 81 1 128 130 116 63 130 0 125 123 136 81 1 134
 128 82 98 0 123 130 0 137 84 32 135 48f81057f53743abb74cd7b3d4939f2914 98 78 12
3 ?101 63 52 4 138 -0 0 101 63 22 81 1 123 131 116 98 134 0 128 119 139 84 32 13
7 af5b11f4d960d68ded2bbd8331c9552a80 1 116 0 140 8001 0 0 0 0 3 5 0 0 0 FFFFTFTF
FFFFFF2 83 255 3 139 .5960784 .6666667 .6862745 79 255 15 140 SDL/TYSA_COLOUR50
 138 88 0 98 122 17 0 +1 0 1 -1 0 0 0 0 1 13 22 3 0 0 0 0 0 0 8 15 50 122 87 0 1
01 115 138 0 +1 1 1 0 -1 0 0 0 -1 50 17 89 0 63 138 5 0 +0 0 1 0 1 0 0 0 1 50 11
5 62 0 99 132 122 0 +0 0 0 0 0 1 1 0 0 50 132 25 0 70 0 115 0 +0 0 1 0 0 1 1 0 0
 83 3 136 .5960784 .6666667 .6862745 83 3 133 .5960784 .6666667 .6862745 83 3 12
9 .5960784 .6666667 .6862745 83 3 124 .5960784 .6666667 .6862745 83 3 118 .59607
84 .6666667 .6862745 84 32 109 c0ae13a7407ffd26dd26f797528f655179 15 108 UGS/Obj
ectState81 1 23 118 82 9 0 0 80 102 141 84 32 104 27328b92cf7fa8873f732c463b0ee0
4d84 32 141 66a34cd12a13ae159f4ff9f4c9b89a0981 1 84 114 82 48 0 0 66 96 142 81 1
 73 116 82 67 0 0 96 80 143 84 32 97 adfd6e22ca4b1510166e76543874600784 32 143 d
c706105ae1aa467f0a666f66c4b95dd81 1 66 113 82 62 0 0 95 84 144 84 32 142 8e05670
2707908ebdcc11fc8cb7b374981 1 95 112 82 93 0 0 90 66 145 84 32 144 8b82e555eb385
cf3544e8ccc17d88def81 1 90 111 82 54 0 0 0 95 146 84 32 145 69c6ad4e357f547bfa3a
fa540ddda80f84 32 146 7ae8def2382bc2db693ad629c12a2fae84 32 83 fae42cfe7d01c4d08
c1673b0244097e319 16 92 0 1 0 8 4 S0 74 4 CI16 index_map_offset0 0 1 dCCZ20 14 4
 0 0 12 134 112 2 0 0 0 0 0 0 0 0 0 0 0 0 0 0 0 0 81 2 12 110 147 1 0 2 0 0 148
 149 80 2 147 150 151 8004 0 0 0 0 3 5 0 0 0 FFTFFFFFFFFFFF2 3 83 1 148 7830.64
 84 8 149 Kg/Cu M 79 16 151 SDL/TYSA_DENSITY80 1 11 152 153 9000 0 0 0 0 3 5 0 0
 0 FFTFFFFFFFFFFF1 82 255 1 13 129 79 24 153 UG2/BODY_COLOR_ATTRIBUTE1 0 
